HIERARCHY
ROOT Hips
{
 OFFSET 0.000000 0.000000 0.000000
 CHANNELS 6 Xposition Yposition Zposition Yrotation Xrotation Zrotation
 JOINT Chest
 {
  OFFSET 0.000000 9.585900 0.002600
  CHANNELS 3 Yrotation Xrotation Zrotation
  JOINT Chest2
  {
   OFFSET 0.000000 9.601200 -0.005300
   CHANNELS 3 Yrotation Xrotation Zrotation
   JOINT Chest3
   {
    OFFSET 0.000000 9.561800 0.000000
    CHANNELS 3 Yrotation Xrotation Zrotation
    JOINT Chest4
    {
     OFFSET 0.000000 9.552100 0.000000
     CHANNELS 3 Yrotation Xrotation Zrotation
     JOINT Neck
     {
      OFFSET 0.000000 14.453000 0.000000
      CHANNELS 3 Yrotation Xrotation Zrotation
      JOINT Head
      {
       OFFSET 0.000000 8.936500 -0.011300
       CHANNELS 3 Yrotation Xrotation Zrotation
       End Site
       {
        OFFSET 0.000000 17.073600 -0.006000
       }
      }
     }
     JOINT RightCollar
     {
      OFFSET -2.921100 9.558500 0.000000
      CHANNELS 3 Yrotation Xrotation Zrotation
      JOINT RightShoulder
      {
       OFFSET -13.519700 0.000000 0.000000
       CHANNELS 3 Yrotation Xrotation Zrotation
       JOINT RightElbow
       {
        OFFSET 0.000000 -29.696600 0.000000
        CHANNELS 3 Yrotation Xrotation Zrotation
        JOINT RightWrist
        {
         OFFSET 0.000000 -24.004700 0.000000
         CHANNELS 3 Yrotation Xrotation Zrotation
         End Site
         {
          OFFSET 0.000000 -17.728500 0.000000
         }
        }
       }
      }
     }
     JOINT LeftCollar
     {
      OFFSET 2.921100 9.558500 0.000000
      CHANNELS 3 Yrotation Xrotation Zrotation
      JOINT LeftShoulder
      {
       OFFSET 13.519700 0.000000 0.000000
       CHANNELS 3 Yrotation Xrotation Zrotation
       JOINT LeftElbow
       {
        OFFSET 0.000000 -29.696600 0.000000
        CHANNELS 3 Yrotation Xrotation Zrotation
        JOINT LeftWrist
        {
         OFFSET 0.000000 -24.004700 0.000000
         CHANNELS 3 Yrotation Xrotation Zrotation
         End Site
         {
          OFFSET 0.000000 -17.728500 0.000000
         }
        }
       }
      }
     }
    }
   }
  }
 }
 JOINT RightHip
 {
  OFFSET -7.771700 -0.012900 -0.001300
  CHANNELS 3 Yrotation Xrotation Zrotation
  JOINT RightKnee
  {
   OFFSET 0.000000 -40.869800 0.001200
   CHANNELS 3 Yrotation Xrotation Zrotation
   JOINT RightAnkle
   {
    OFFSET 0.000000 -39.717900 0.002100
    CHANNELS 3 Yrotation Xrotation Zrotation
    JOINT RightToe
    {
     OFFSET 0.000000 -4.965400 11.033500
     CHANNELS 3 Yrotation Xrotation Zrotation
     End Site
     {
      OFFSET 0.000000 -1.423100 5.872300
     }
    }
   }
  }
 }
 JOINT LeftHip
 {
  OFFSET 7.771700 -0.012900 -0.001300
  CHANNELS 3 Yrotation Xrotation Zrotation
  JOINT LeftKnee
  {
   OFFSET 0.000000 -40.869800 0.001200
   CHANNELS 3 Yrotation Xrotation Zrotation
   JOINT LeftAnkle
   {
    OFFSET 0.000000 -39.717900 0.002100
    CHANNELS 3 Yrotation Xrotation Zrotation
    JOINT LeftToe
    {
     OFFSET 0.000000 -4.965400 11.033500
     CHANNELS 3 Yrotation Xrotation Zrotation
     End Site
     {
      OFFSET 0.000000 -1.423100 5.872300
     }
    }
   }
  }
 }
}
MOTION
Frames: 12
Frame Time: 0.008333
0.000000 85.388000 0.000000 0.000000 -5.767877 0.000000 0.000000 11.653817 0.000000 0.000000 -5.885947 0.000000 0.000000 -0.000000 0.000000 0.000000 -0.000000 0.000000 0.000000 12.528835 0.000000 0.000000 0.711642 0.000000 0.000000 -0.000000 0.000000 0.000000 0.000000 -90.000000 0.000000 -2.309062 0.000000 0.000000 2.309062 0.000000 0.000000 -0.000000 0.000000 0.000000 -0.000000 90.000000 0.000000 -2.309062 0.000000 0.000000 2.309062 0.000000 0.000000 8.520406 0.000000 0.000000 1.905762 0.000000 -0.000000 -4.658285 0.000000 0.000000 -0.000000 0.000000 0.000000 8.520406 0.000000 0.000000 1.905762 0.000000 -0.000000 -4.658285 0.000000 0.000000 -0.000000 0.000000
-120.397614 49.218512 19.646001 176.738787 -32.128732 -3.917682 0.375258 18.703095 2.957530 -0.021395 2.162595 0.281490 -0.007451 3.563141 0.474503 0.211652 16.180367 2.200238 9.151768 26.706378 0.004583 16.266979 14.169675 -1.976666 -2.176687 -2.387305 -3.421259 -2.030453 -14.656671 -10.054301 -64.024644 -60.568132 102.247620 7.084116 11.136439 -8.477416 -0.803791 -1.926322 3.852851 1.229806 -7.974770 12.650998 91.292677 -64.679720 -121.953596 1.510074 7.853336 -0.572408 -5.510864 -52.364149 -6.174435 -152.890856 83.044238 -140.013230 -30.409919 -3.379694 -4.468688 0.012281 -12.192340 0.451775 -14.024999 -54.405191 19.004515 -74.300582 65.750771 -79.386801 30.834419 6.562529 15.737699 -0.121092 -0.416736 -0.062817
-120.402311 49.219171 19.644164 176.776352 -32.163993 -3.927692 0.354445 18.738971 2.957447 -0.020954 2.157602 0.280149 0.008577 3.586620 0.492200 0.205566 16.194096 2.209216 9.081255 26.627558 -0.120518 16.210222 14.048476 -2.134502 -2.140965 -2.361254 -3.404364 -2.265069 -14.795091 -10.116543 -64.850338 -60.525618 103.024479 7.909621 11.210117 -6.501654 -0.828022 -1.934079 3.825325 1.368983 -7.980324 12.799764 92.072870 -64.845091 -122.653701 1.582064 7.839875 -0.857625 -5.526150 -52.324085 -6.218089 -152.996455 83.044222 -140.108725 -30.392455 -3.384218 -4.472027 -0.004733 -12.200234 0.449920 -14.024983 -54.382457 18.952842 -74.328649 65.768678 -79.400157 30.830651 6.574427 15.726368 -0.114458 -0.425972 -0.061825
-120.406099 49.218454 19.646530 176.799323 -32.177246 -3.935734 0.350804 18.763272 2.972339 -0.019654 2.154832 0.278606 0.007448 3.604628 0.499577 0.189687 16.176071 2.196328 9.057675 26.557371 -0.197709 16.143470 13.868051 -2.325451 -2.083466 -2.305585 -3.382581 -2.570683 -14.903504 -10.188460 -65.875808 -60.412551 104.111518 8.661081 10.951166 -4.385491 -0.825675 -1.853805 3.813641 1.587094 -8.020016 12.949988 92.259874 -64.616258 -122.997010 1.811557 7.652794 -1.443629 -5.537272 -52.306766 -6.245198 -153.063300 83.048922 -140.165213 -30.375482 -3.389966 -4.480034 -0.024252 -12.199839 0.450473 -14.030752 -54.377245 18.925055 -74.339153 65.780455 -79.395658 30.822783 6.587560 15.711197 -0.106188 -0.430280 -0.055475
-120.406513 49.218495 19.650937 176.812165 -32.183648 -3.956598 0.367997 18.789329 3.014691 -0.008564 2.176851 0.294784 -0.008064 3.594936 0.486973 0.187305 16.190125 2.206682 9.012154 26.435559 -0.301760 16.080112 13.647340 -2.522691 -2.050418 -2.289956 -3.392395 -2.928323 -15.007462 -10.280635 -66.984332 -60.197663 105.393398 9.238359 10.410271 -2.333145 -0.829457 -1.833549 3.796811 1.852971 -8.026728 13.080563 91.847535 -64.051293 -122.927936 2.145742 7.341681 -2.226881 -5.566751 -52.297402 -6.221790 -153.107423 83.064265 -140.207588 -30.390161 -3.381407 -4.487515 -0.025472 -12.203218 0.452434 -14.057077 -54.369510 18.939499 -74.348330 65.786828 -79.388966 30.795562 6.586946 15.687353 -0.084253 -0.419526 -0.045886
-120.409544 49.218707 19.657824 176.842872 -32.172425 -3.968702 0.350763 18.789670 3.022521 -0.008642 2.179724 0.296108 0.004588 3.619709 0.500987 0.182902 16.201237 2.221982 8.967333 26.302139 -0.408104 16.017659 13.401348 -2.717279 -2.038520 -2.279385 -3.416130 -3.329692 -15.129518 -10.376593 -68.052851 -59.858231 106.751272 9.570093 9.688221 -0.489388 -0.827201 -1.827451 3.794301 2.141621 -8.024619 13.176648 90.906985 -63.256570 -122.471516 2.552854 6.921260 -3.107577 -5.590166 -52.306122 -6.225127 -153.091175 83.070789 -140.193078 -30.387947 -3.380293 -4.494737 -0.031684 -12.199015 0.458011 -14.077816 -54.386458 18.916156 -74.340782 65.799227 -79.359317 30.785228 6.605457 15.673139 -0.072508 -0.421593 -0.044145
-120.412590 49.217519 19.670529 176.905517 -32.118428 -3.996224 0.303848 18.750857 3.029118 -0.008579 2.182534 0.297439 0.018241 3.648002 0.512221 0.185040 16.212850 2.242372 8.917540 26.205846 -0.483462 15.937616 13.107972 -2.944134 -2.055056 -2.306425 -3.444928 -3.748104 -15.252076 -10.461678 -68.949460 -59.381755 108.036076 9.623556 8.870716 1.069383 -0.846033 -1.872480 3.775419 2.445732 -7.986243 13.270189 89.619118 -62.342252 -121.763908 3.009219 6.426093 -3.988106 -5.645120 -52.355680 -6.225396 -153.064517 83.077910 -140.168466 -30.378847 -3.373564 -4.499415 -0.040086 -12.197858 0.459785 -14.145435 -54.439867 18.909499 -74.276496 65.794087 -79.253990 30.775403 6.672252 15.632920 -0.055153 -0.440273 -0.028078
-120.414779 49.219915 19.681137 176.927825 -32.079686 -4.004062 0.309759 18.743120 3.051193 -0.008526 2.186954 0.299989 0.014282 3.658999 0.508821 0.193685 16.221765 2.267169 8.852848 26.041883 -0.604473 15.868714 12.867291 -3.097828 -2.081099 -2.302802 -3.482065 -4.156641 -15.431408 -10.523703 -69.608017 -58.774353 109.140146 9.413238 8.020493 2.322973 -0.829223 -1.951085 3.817000 2.706488 -7.921549 13.284635 88.207261 -61.397340 -120.978398 3.486233 5.904233 -4.788379 -5.656137 -52.391411 -6.229416 -153.016350 83.092406 -140.119375 -30.367639 -3.359544 -4.509355 -0.045503 -12.197124 0.464557 -14.179414 -54.475936 18.908466 -74.234509 65.795757 -79.194218 30.769774 6.703490 15.613077 -0.043736 -0.445876 -0.021506
-120.416433 49.224428 19.691441 176.921995 -32.040109 -3.998480 0.349783 18.769038 3.072228 -0.021390 2.161341 0.300426 0.013797 3.664013 0.505074 0.204575 16.234482 2.289583 8.779600 25.876358 -0.724793 15.794484 12.629887 -3.242828 -2.118412 -2.323817 -3.514129 -4.496245 -15.608033 -10.581816 -70.052288 -58.061018 110.039390 8.983769 7.196470 3.281177 -0.823661 -2.052870 3.836653 2.946721 -7.841182 13.315189 86.836062 -60.493647 -120.228754 3.956950 5.382789 -5.449997 -5.635387 -52.433255 -6.220728 -152.890047 83.111764 -139.998509 -30.392205 -3.319546 -4.513282 -0.036955 -12.206565 0.470378 -14.196978 -54.509214 18.911198 -74.193901 65.805584 -79.147739 30.773413 6.714277 15.607672 -0.048185 -0.446668 -0.022849
-120.417927 49.231798 19.699270 176.920014 -32.010517 -3.994738 0.372832 18.789295 3.074925 -0.021130 2.152008 0.309921 0.010953 3.668356 0.496090 0.218060 16.243614 2.311604 8.703373 25.738357 -0.829679 15.704872 12.383043 -3.399418 -2.150912 -2.371680 -3.527722 -4.758923 -15.770831 -10.660065 -70.320241 -57.270933 110.745366 8.400540 6.435172 3.961547 -0.809590 -2.168262 3.866079 3.133862 -7.743995 13.334890 85.597653 -59.681260 -119.567889 4.395044 4.877088 -5.934187 -5.631154 -52.458891 -6.209179 -152.750208 83.128197 -139.864401 -30.403161 -3.296202 -4.517433 -0.028582 -12.210560 0.472674 -14.215833 -54.528903 18.912515 -74.146025 65.815176 -79.096221 30.768581 6.729789 15.605429 -0.060801 -0.458603 -0.026898
-120.419717 49.239774 19.706946 176.922527 -31.972164 -3.992450 0.380383 18.794589 3.063807 -0.015852 2.151437 0.317605 0.009135 3.670320 0.489019 0.248364 16.284926 2.313844 8.619010 25.566922 -0.914443 15.609187 12.146364 -3.549120 -2.193835 -2.455617 -3.507215 -4.951358 -15.944713 -10.747567 -70.432710 -56.434030 111.276109 7.742754 5.738277 4.390358 -0.823692 -2.289659 3.907737 3.281264 -7.674949 13.369446 84.540057 -58.984304 -119.015041 4.772778 4.413674 -6.221140 -5.629325 -52.489791 -6.196096 -152.588599 83.145795 -139.707220 -30.419254 -3.280739 -4.520281 -0.014927 -12.207710 0.474766 -14.249682 -54.552310 18.919556 -74.075456 65.808469 -79.028066 30.801569 6.752996 15.608993 -0.085362 -0.472683 -0.032205
-120.423036 49.247770 19.713818 176.922711 -31.927551 -3.981772 0.378652 18.794556 3.037089 -0.003275 2.151060 0.322837 0.000439 3.648708 0.493470 0.263266 16.307511 2.307163 8.580365 25.478996 -0.948810 15.467932 11.893331 -3.737259 -2.217600 -2.521017 -3.496228 -5.088462 -16.107357 -10.829243 -70.419478 -55.595164 111.657629 7.078629 5.098040 4.593586 -0.783331 -2.438844 3.969890 3.326257 -7.546297 13.382358 83.685870 -58.418718 -118.570181 5.069119 4.026410 -6.304762 -5.616067 -52.527313 -6.199003 -152.451773 83.157688 -139.570735 -30.424944 -3.277144 -4.521649 -0.003852 -12.199198 0.474605 -14.318077 -54.564304 18.946652 -73.959235 65.812228 -78.938863 30.818483 6.749472 15.610037 -0.108925 -0.461835 -0.040571
